<svg width="21" height="24" viewBox="0 0 21 24" fill="none" xmlns="http://www.w3.org/2000/svg">
<g clip-path="url(#clip0_1522_21068)">
<path d="M11.2461 0.348883L3.86477 11.6304C3.64723 11.9628 3.77195 12.3888 4.14431 12.5852L11.5187 16.4736C11.7695 16.6058 12.0821 16.6045 12.3315 16.4701L19.7162 12.4913C20.0847 12.2927 20.2057 11.8683 19.9879 11.5379L12.6102 0.346891C12.3047 -0.116512 11.5499 -0.11541 11.2461 0.348883Z" fill="#FF8267"/>
<path d="M12.5396 23.6975L18.222 16.3957C18.7093 15.7695 17.8814 14.9995 17.1543 15.4026L12.3076 18.0892C12.0498 18.2321 11.7225 18.2309 11.466 18.0862L6.69769 15.396C5.97352 14.9875 5.1385 15.7532 5.62191 16.3826L11.2377 23.694C11.55 24.1006 12.2245 24.1024 12.5396 23.6975Z" fill="#FF8267"/>
</g>
<defs>
<clipPath id="clip0_1522_21068">
<rect width="20.0971" height="24" fill="white"/>
</clipPath>
</defs>
</svg>
