<svg width="57" height="37" viewBox="0 0 57 37" fill="none" xmlns="http://www.w3.org/2000/svg">
<path d="M19.2872 31.2535C16.8209 28.8906 17.5561 24.8993 20.7162 23.4864C21.0197 23.8946 21.3588 24.2863 21.742 24.6521C25.4279 28.1836 31.4061 28.1836 35.0918 24.6521C36.2331 23.5588 37.0196 22.2564 37.4541 20.8737C38.564 17.3396 41.1043 14.3788 44.5949 12.8186L44.8814 12.6902C48.3334 11.1477 52.424 11.8385 55.1167 14.4197C57.3193 16.5301 57.3193 19.9837 55.1167 22.0941L45.5566 31.2535C38.3332 38.1743 26.5121 38.1743 19.2872 31.2535Z" fill="#466CA4"/>
<path d="M35.0266 11.792C31.3409 8.26058 25.3626 8.26058 21.6769 11.792C20.5356 12.8854 19.7491 14.1876 19.3146 15.5704C18.2047 19.1045 15.6643 22.0653 12.1737 23.6255L11.8874 23.7539C8.43521 25.2963 4.34477 24.6056 1.652 22.0244C-0.550666 19.914 -0.550666 16.4604 1.652 14.3501L11.212 5.1906C18.4355 -1.7302 30.258 -1.7302 37.4816 5.1906C39.9478 7.55349 39.2126 11.5449 36.0525 12.9577C35.7505 12.5482 35.41 12.1578 35.0266 11.792Z" fill="#466CA4"/>
<path d="M28.3264 23.4749C31.3124 23.4749 33.7332 21.1556 33.7332 18.2946C33.7332 15.4336 31.3124 13.1143 28.3264 13.1143C25.3402 13.1143 22.9194 15.4336 22.9194 18.2946C22.9194 21.1556 25.3402 23.4749 28.3264 23.4749Z" fill="#466CA4"/>
</svg>
