<svg width="24" height="25" viewBox="0 0 24 25" fill="none" xmlns="http://www.w3.org/2000/svg">
<path d="M0.73517 19.9068C-0.292667 15.2098 -0.0147588 11.0367 0.221326 9.46905C0.389923 8.34953 6.34725 3.77196 9.73942 1.24635C11.1125 0.22405 12.9796 0.219427 14.357 1.23581C17.7777 3.75988 23.7934 8.35034 23.8674 9.46905C23.8698 9.50433 23.8722 9.54095 23.8747 9.57887C23.9842 11.222 24.2569 15.3158 23.3531 19.9068C22.8394 22.5163 21.3166 23.6943 18.2126 24.082C17.9913 24.1096 17.7704 24.1358 17.5502 24.1606C17.2559 24.1936 17 23.9617 17 23.6649V16.5906C17 14.9301 15.6568 13.584 14 13.584L9.99999 13.584C8.34314 13.584 6.99999 14.9301 6.99999 16.5906L6.99999 23.6564C6.99999 23.9538 6.74306 24.186 6.44831 24.1518C6.25764 24.1296 6.06673 24.1064 5.87555 24.082C2.77266 23.6862 1.3021 22.4976 0.73517 19.9068Z" fill="#FFE074"/>
<path d="M8.99999 23.9107C8.99999 24.1751 9.20506 24.3944 9.46857 24.4085C11.1525 24.4987 12.8319 24.4993 14.5307 24.4103C14.7945 24.3964 15 24.1771 15 23.9123L15 16.5906C15 16.0371 14.5523 15.5884 14 15.5884L9.99999 15.5884C9.44771 15.5884 8.99999 16.0371 8.99999 16.5906L8.99999 23.9107Z" fill="#FFE074"/>
</svg>
