<svg width="24" height="24" viewBox="0 0 24 24" fill="none" xmlns="http://www.w3.org/2000/svg">
<ellipse cx="10.1051" cy="22.015" rx="1.98496" ry="1.98496" fill="#FFE074"/>
<ellipse cx="16.7218" cy="22.015" rx="1.98496" ry="1.98496" fill="#FFE074"/>
<path d="M22.6769 7.45862C22.6769 15.3985 20.0303 17.3834 13.4137 17.3834C6.79721 17.3834 4.15059 15.3985 4.15059 5.47365H20.6919C22.0153 5.47365 22.6769 6.34432 22.6769 7.45862Z" fill="#FFE074"/>
<path d="M1.14307 1.14282C3.15416 2.14837 4.15059 3.02742 4.15059 5.47365M4.15059 5.47365C4.15059 15.3985 6.79721 17.3834 13.4137 17.3834C20.0303 17.3834 22.6769 15.3985 22.6769 7.45862C22.6769 6.34432 22.0153 5.47365 20.6919 5.47365C19.3686 5.47365 8.5584 5.47365 4.15059 5.47365Z" stroke="#FFE074" stroke-width="2" stroke-linecap="round" stroke-linejoin="round"/>
</svg>
